<?xml version="1.0" encoding="utf-8"?>
<!-- Generator: Adobe Illustrator 21.0.0, SVG Export Plug-In . SVG Version: 6.00 Build 0)  -->
<svg version="1.1" id="Camada_1" xmlns="http://www.w3.org/2000/svg" xmlns:xlink="http://www.w3.org/1999/xlink" x="0px" y="0px"
	 viewBox="0 0 650 216.9" style="enable-background:new 0 0 650 216.9;" xml:space="preserve">
<style type="text/css">
	.st0{fill:#8D5B99;}
	.st1{fill:#DFC58E;}
	.st2{fill:#C13238;}
</style>
<g>
	<g>
		<path class="st0" d="M254.5,149.9c-0.9-1-1.7-2.2-2.2-3.7c-0.6-1.5-0.9-3.2-0.9-5.2c0-2,0.5-4.6,1.4-8c0.9-3.3,2.1-7.1,3.5-11.4
			l4.7-13.8c6.6-19.3,10.5-34.1,11.5-44.7c0.3-3.1,1.9-4.7,4.6-4.7c1.7,0,3.1,0.4,4.2,1.2c2.1,1.6,3.2,3.4,3.1,5.4s-0.4,4.4-1.1,7.3
			c-0.6,2.9-1.4,6-2.4,9.4c-1,3.4-2.1,7-3.4,10.7l-7.7,22.6c-4.4,12.8-6.6,21.1-6.6,24.8c0,2,0.8,3,2.4,3c1.6,0,6.4-0.2,7.8-0.3
			c4.1-0.1,9.8-0.2,12.5,0.5c2.8,0.8,3.7,2.8,3.4,5.3c-0.6,5.5-25.2,4.2-27.1,4.2c-1.9,0-3.4-0.2-4.5-0.7
			C256.5,151.5,255.4,150.8,254.5,149.9z"/>
		<path class="st0" d="M311.6,141.7c1,0,1.4,0.6,1.4,1.9c0,1.7-0.8,3.4-2.3,5.2c-2.2,2.6-5.2,3.9-8.9,3.9c-4.3,0-7.2-1.7-8.8-5.2
			c-0.6-1.2-0.9-2.7-0.9-4.4c0-1.7,0.3-3.7,0.9-5.8s1.4-4.4,2.3-6.7c0.9-2.4,1.9-4.7,3-7.1l2.9-7c2.1-5.2,3.2-8.7,3.2-10.3
			s-0.2-2.8-0.5-3.3c-0.4-0.5-0.7-1-1.1-1.2l-1.1-0.8c-0.4-0.3-0.6-0.7-0.6-1.4c0-0.6,0.3-1.3,0.8-1.9s1.2-1.1,2-1.6
			c1.7-0.9,3.6-1.3,5.8-1.3c5.4,0,8.2,1.4,8.2,4.3c0,3.3-0.9,7.1-2.6,11.4c-1.7,4.3-3.2,7.7-4.4,10.4l-3.3,7.7
			c-2.4,5.6-3.7,9.7-3.7,12.2c0,1.6,0.8,2.4,2.4,2.4c1.6,0,2.8-0.2,3.6-0.6C310.7,141.9,311.2,141.7,311.6,141.7z M323,81.6
			c-0.8,0.9-1.7,1.6-2.8,2.1c-1,0.5-2.1,0.9-3.3,1c-1.1,0.1-2.2,0-3.3-0.5c-1-0.5-1.9-1.2-2.6-2.1c-1.6-1.9-2.4-3.7-2.4-5.6
			c0-1.9,0.3-3.3,0.9-4.3c0.6-0.9,1.4-1.7,2.3-2.3c1.8-1.1,3.5-1.7,5-1.7c1.6,0,2.8,0.1,3.7,0.3c0.9,0.2,1.7,0.6,2.4,1.1
			c1.8,1.2,2.7,2.7,2.7,4.5c0,1.8-0.3,3.2-0.8,4.4C324.5,79.7,323.8,80.7,323,81.6z"/>
		<path class="st0" d="M357.9,137.5c1.1,0,1.6,0.7,1.6,2.2c0,1.2-0.4,2.4-1.1,3.6c-1,2.1-3,4.2-6,6.1c-3.4,2.2-6.8,3.3-10.3,3.3
			c-6,0-9.7-2.7-11.3-8c-1.9-6.3,0.9-19.8,8.5-40.3c-4.3-0.4-6.6-1.1-6.9-2.2c-0.1-0.3-0.2-0.7-0.2-1.1c0-0.4,0.2-0.8,0.5-1.4
			c0.4-0.5,0.8-1,1.4-1.5c1.3-1.1,2.6-1.6,3.9-1.6h4.4c4-9.4,6.9-14.7,8.6-16c0.8-0.6,1.7-0.9,2.7-0.9c1,0,1.8,0.1,2.5,0.4
			c0.7,0.3,1.3,0.6,1.8,1.1c1.2,1.1,1.8,2.4,1.8,3.7c0,0.7-0.2,1.6-0.7,2.6l-4.1,8.9h1.3c2.3,0,4.1,0,5.6-0.1l3.2-0.1
			c0.7,0,1.6-0.1,2.6-0.1c1.1,0,1.6,0.4,1.6,1.2c0,4.9-5.8,7.3-17.3,7.3h-0.4l-3.8,9.8c-4.3,11.6-6.4,19.6-6.4,24.3
			c0,1.3,0.3,2.3,0.9,3c0.6,0.7,1.7,1.1,3.3,1.1c1.6,0,3.1-0.3,4.4-0.8c1.3-0.6,2.5-1.2,3.5-1.9c1-0.7,1.9-1.3,2.6-1.9
			S357.4,137.5,357.9,137.5z"/>
		<path class="st0" d="M418.2,141.1c0.9,0,1.3,0.4,1.3,1.3c0,3.2-1.6,5.9-4.8,8.1c-2.1,1.4-4.7,2.1-7.6,2.1c-2.4,0-4.2-0.6-5.4-1.7
			c-2.3-2-3.4-4.4-3.4-7.3c0-3.7,1.5-9.3,4.6-16.8c-5.7,7.7-9.7,12.8-12,15.4s-4.3,4.5-6,5.9c-3.7,3-7.1,4.6-10.1,4.6
			c-4.6,0-7.6-2-9.2-5.9c-0.4-1.2-0.7-2.6-0.7-4.2s0.3-3.3,0.8-5.3c0.5-1.9,1.2-4,2.1-6.1c0.9-2.1,1.8-4.3,2.8-6.5l3-6.7
			c3.9-8.6,5.3-13.6,4.3-15.2c-0.4-0.7-1.3-1.4-2.5-2.1c-0.4-0.3-0.7-0.7-0.7-1.4c0-0.6,0.3-1.3,0.8-1.9c0.5-0.6,1.2-1.1,2.1-1.6
			c1.8-0.9,3.6-1.3,5.4-1.3c1.8,0,3.2,0.2,4.1,0.6c0.9,0.4,1.7,0.9,2.3,1.5c1.2,1.2,1.8,2.6,1.8,4.1c0,1.5-0.2,3.1-0.7,5
			c-0.5,1.8-1.1,3.8-1.9,6c-0.8,2.1-1.6,4.4-2.6,6.7c-2.6,6-4.3,10-5.2,11.9l-2.1,4.3c-1.1,2.6-1.7,4.4-1.7,5.4c0,1,0.2,1.8,0.5,2.2
			c0.3,0.4,0.9,0.6,1.8,0.6c0.9,0,1.9-0.4,3-1.2c1.1-0.8,2.4-1.9,3.8-3.3c1.4-1.4,2.8-3,4.3-4.7c1.5-1.8,2.9-3.7,4.3-5.6
			c2.8-3.8,4.8-6.8,6.1-9.1c7.9-13.9,12-21.1,12.6-21.8c1.2-1.6,2.4-2.4,3.6-2.4c1.2,0,2.3,0.1,3.3,0.4s1.7,0.7,2.4,1.2
			c1.6,1.1,2.1,2.3,1.5,3.4c-9,18.9-13.9,30.7-14.6,35.6c-0.2,1.7-0.3,2.8-0.3,3.4c0,2.8,0.9,4.2,2.6,4.2c1.6,0,2.9-0.3,3.9-0.9
			C417.1,141.4,417.8,141.1,418.2,141.1z"/>
		<path class="st0" d="M429.5,150.8c-0.7-0.6-1.3-1.2-1.8-1.9c-0.4-0.7-0.7-1.3-0.7-1.8c0-0.5,0.1-1.1,0.3-1.8
			c0.2-0.7,0.6-1.6,1-2.6c7.6-18.6,11.3-31.1,11.3-37.4c-0.1-1.8-0.7-3-1.8-3.8l-1.1-0.8c-0.3-0.3-0.5-0.7-0.5-1.4
			c0-0.6,0.2-1.3,0.7-1.9c0.5-0.6,1.1-1.1,1.9-1.6c1.6-0.9,3.2-1.3,4.9-1.3c1.7,0,3,0.2,3.9,0.6c0.9,0.4,1.7,0.9,2.4,1.5
			c1.4,1.3,2.1,2.7,2.1,4.2c0,1.5-0.1,3-0.5,4.5c-0.4,1.5-0.8,3-1.2,4.5c-0.5,1.5-1,2.9-1.4,4.2c-0.5,1.3-0.8,2.3-0.9,2.9
			c-0.3,1.3-0.4,2.1-0.3,2.4c0.9-0.8,1.4-1.5,1.6-2.3l2.2-4.1c4.8-8.7,9.5-14.4,14.1-17.2c1.3-0.8,2.9-1.2,4.8-1.2
			c1.9,0,3.4,0.7,4.5,2c1.1,1.3,1.8,2.8,1.8,4.4c0.1,1.6-0.1,2.9-0.3,4c-0.3,1.1-0.7,2-1.3,3c-1.2,2.1-2.7,3.1-4.4,3.1
			c-0.5,0-0.9-0.2-1.3-0.5l-1.2-1.1c-1.2-1.1-2.4-1.6-3.5-1.6c-1.1,0-2.5,0.7-4.1,2.2s-3.3,3.4-5,5.7c-5.9,7.7-10.6,16.4-14.3,26
			l-2.4,6.4c-0.6,1.6-1.2,2.7-1.7,3.4c-0.5,0.7-1.2,1-2.1,1c-0.9,0-1.9-0.2-2.8-0.5C431.1,151.8,430.3,151.3,429.5,150.8z"/>
		<path class="st0" d="M508.3,140c-5.6,8.4-11.9,12.7-18.7,12.7c-6.2,0-10.4-3.3-12.5-9.9c-0.7-2.3-1.1-5-1.1-8.3
			c0-3.3,0.5-6.6,1.4-9.9c0.9-3.3,2.2-6.5,3.9-9.4s3.5-5.7,5.7-8.2c2.2-2.5,4.6-4.7,7.1-6.5c5.3-3.9,10.5-5.8,15.7-5.8
			c5.2,0,8.9,2.4,11.1,7.3c0.4-0.5,0.9-1,1.2-1.5c0.4-0.5,0.8-1,1.2-1.4c1-1,1.8-1.4,2.5-1.4c0.7,0,1.5,0.1,2.3,0.4
			c0.8,0.3,1.6,0.6,2.3,1.1c1.8,1.1,2.5,2.1,2.1,3c-2,4.4-3.7,8.7-5.1,13l-8.2,26.2c-6.5,19.9-14.7,32.7-24.7,38.6
			c-2.6,1.6-4.9,2.5-6.8,2.7c-1.9,0.2-3.3,0.2-4.2,0c-0.9-0.2-1.6-0.5-2.3-0.9c-1.4-0.9-2.2-1.8-2.2-2.5c0-1.3,0.9-2.1,2.6-2.4
			c1.7-0.3,3.5-1,5.4-2.1c1.9-1.1,3.7-2.4,5.4-4C499.4,164.1,504.7,153.9,508.3,140z M491.6,120.7c-1,2.7-1.7,5.4-2.3,8.2
			c-0.6,2.8-0.8,5.1-0.8,6.9c0,1.8,0.1,3.1,0.2,4.1c0.1,0.9,0.3,1.7,0.7,2.4c0.7,1.6,1.8,2.3,3.3,2.3s2.9-0.5,4.3-1.5
			c1.4-1,2.9-2.4,4.4-4.2c1.6-1.8,3.1-3.9,4.7-6.3c1.6-2.4,3-5,4.4-7.8c3.1-6.1,5.3-12,6.6-17.6c-0.2-1-0.8-2.1-1.9-3.2
			c-2.1-2-4-3.1-5.7-3.1c-1.7,0-3.4,0.5-5.1,1.6c-1.7,1.1-3.3,2.5-4.9,4.3c-1.5,1.8-3,3.9-4.3,6.3
			C493.8,115.5,492.6,118,491.6,120.7z"/>
		<path class="st0" d="M554.3,141.7c1,0,1.4,0.6,1.4,1.9c0,1.7-0.8,3.4-2.3,5.2c-2.2,2.6-5.2,3.9-8.9,3.9c-4.3,0-7.2-1.7-8.8-5.2
			c-0.6-1.2-0.9-2.7-0.9-4.4c0-1.7,0.3-3.7,0.9-5.8c0.6-2.1,1.4-4.4,2.3-6.7c0.9-2.4,1.9-4.7,3-7.1l2.9-7c2.1-5.2,3.2-8.7,3.2-10.3
			s-0.2-2.8-0.5-3.3c-0.4-0.5-0.7-1-1.1-1.2l-1.1-0.8c-0.4-0.3-0.6-0.7-0.6-1.4c0-0.6,0.3-1.3,0.8-1.9s1.2-1.1,2-1.6
			c1.7-0.9,3.6-1.3,5.8-1.3c5.4,0,8.2,1.4,8.2,4.3c0,3.3-0.9,7.1-2.6,11.4c-1.7,4.3-3.2,7.7-4.4,10.4l-3.3,7.7
			c-2.4,5.6-3.7,9.7-3.7,12.2c0,1.6,0.8,2.4,2.4,2.4c1.6,0,2.8-0.2,3.6-0.6C553.3,141.9,553.9,141.7,554.3,141.7z M565.6,81.6
			c-0.8,0.9-1.7,1.6-2.8,2.1c-1,0.5-2.1,0.9-3.3,1c-1.1,0.1-2.2,0-3.3-0.5c-1-0.5-1.9-1.2-2.6-2.1c-1.6-1.9-2.4-3.7-2.4-5.6
			c0-1.9,0.3-3.3,0.9-4.3c0.6-0.9,1.4-1.7,2.3-2.3c1.8-1.1,3.5-1.7,5-1.7c1.6,0,2.8,0.1,3.7,0.3c0.9,0.2,1.7,0.6,2.4,1.1
			c1.8,1.2,2.7,2.7,2.7,4.5c0,1.8-0.3,3.2-0.7,4.4C567.1,79.7,566.5,80.7,565.6,81.6z"/>
		<path class="st0" d="M625.2,97.5c3.7-1.9,7.4-2.9,11.1-2.9c6.3,0,10.6,2.6,12.7,7.8c0.7,1.8,1,3.9,1,6.3c0,2.4-0.5,4.7-1.4,6.7
			c-0.9,2.1-2.1,3.9-3.7,5.6c-1.6,1.7-3.4,3.2-5.6,4.5c-2.2,1.3-4.5,2.5-7.1,3.4c-5.3,1.9-10.9,2.8-16.9,2.9
			c-0.1,0.5-0.2,1.3-0.3,2.3c0,1,0.1,2.2,0.3,3.5c0.3,1.3,0.7,2.4,1.3,3.4c1.4,2.2,3.3,3.3,5.8,3.3c4.3,0,8.5-1.3,12.6-3.8
			c1.4-0.9,2.6-1.7,3.5-2.6c0.9-0.9,1.7-1.4,2.4-1.4c0.7,0,1.3,0.4,1.8,1.2c0.5,0.8,0.7,1.7,0.7,2.7c0,2-0.6,3.7-1.7,5.1
			c-4.7,4.7-11.6,7-20.8,7c-6.5,0-11.5-2.3-14.8-6.9c-1.2-1.6-2.1-3.5-2.7-5.7v-0.1l-0.3-1.3l-0.9-2.8c-3.7,7.1-8.3,12.2-13.9,15.2
			c-2.1,1.1-4.4,1.7-6.7,1.7c-2.4,0-4.4-0.5-6.1-1.4c-1.7-0.9-3.1-2.2-4.3-3.9c-2.4-3.5-3.5-7.9-3.3-13.1c0.2-6.6,2.2-13.1,5.8-19.4
			c3.4-5.9,7.6-10.8,12.8-14.5c5.1-3.8,10-5.7,14.4-5.7c4.5,0,8.1,2.1,10.8,6.2c2.6-4.1,4.8-6.2,6.8-6.2c1.3,0,2.6,0.3,3.9,0.8
			C623.7,95.9,624.6,96.6,625.2,97.5z M580.2,134.8c0,6.3,1.4,9.4,4.3,9.4c2.2,0,4.9-1.9,8.1-5.6c4.7-5.4,8.8-12.8,12.4-22
			c1.1-2.9,2.1-5.8,2.9-8.7c-0.1-2.5-1.2-4.4-3.2-5.6c-0.7-0.4-1.7-0.6-3-0.6c-1.3,0-2.9,0.5-4.6,1.4c-1.8,0.9-3.5,2.2-5.1,3.9
			c-1.6,1.6-3.2,3.5-4.6,5.7c-1.4,2.2-2.7,4.5-3.7,6.9C581.4,125,580.2,130,580.2,134.8z M633.4,102c-3.9,0-7.6,2.7-11.2,8
			c-3.1,4.6-5.5,10-7.4,16.3c6.2-0.6,11.5-3.1,16.1-7.3c4.2-4,6.3-7.8,6.3-11.5C637.2,103.8,635.9,102,633.4,102z"/>
	</g>
	<g>
		<g>
			<path class="st1" d="M87.2,176c0,0,23.8-6.7,76.1,3.7c4.4-10.2,6.8-21.5,6.8-33.3c0-47-38.1-85-85-85c-8.3,0-16.3,1.2-23.9,3.4
				C83.3,116.9,87.2,176,87.2,176z"/>
			<path class="st1" d="M40.9,75.8c11.4,33.8,25.4,105.3,25.4,105.3s-1.7-52.5-14.3-97.3c-1.3-4.7-2.7-9.3-4.2-13.8
				c-2.5,1.2-5,2.6-7.4,4.1C40.5,74.7,40.7,75.2,40.9,75.8z"/>
		</g>
		<path class="st2" d="M149.3,83C121.6,62.5,85,56.3,56.5,55l5.4,11.8c0.1,0,0.1,0,0.2,0c29.8,6,65.3,18.3,82.1,43.9
			c24.3,36.9,13.2,67.8,13.2,67.8s10.9,3,14.1,3.9c4.2,1.2,16.5,2.9,16.5,2.9S204.3,123.7,149.3,83z"/>
		<g>
			<path class="st0" d="M56.7,55C49,38.9,39.3,23.8,27.3,12l-4.6-2c0,0,9.9,18.9,19.4,44.3C46.6,54.3,51.5,54.5,56.7,55z"/>
			<path class="st0" d="M210.4,191.9C143.2,159,87.2,176,87.2,176S83.4,118.5,62,66.8c-5.7-1.1-11.2-2-16.4-2.8
				c2.2,6.4,4.4,13,6.3,19.8c12.6,44.8,14.4,98.7,14.4,98.7s-14-72.9-25.4-106.7c-1.5-4.3-3-8.7-4.5-12.9
				c-14.1-1.5-23.6-1.6-23.6-1.6l27.9,135.5c0,0-3.5,12.9,6.5,18c11.1,5.6,22.5-1.3,22.5-1.3l166.2,1.7
				C235.9,215.1,219.1,196.1,210.4,191.9z"/>
			<path class="st0" d="M33.3,54.4C23.9,28.8,15.1,8.1,15.1,8.1L0,0l11.7,56.6C12.3,56.5,20.4,54.8,33.3,54.4z"/>
		</g>
	</g>
</g>
</svg>
